<svg xmlns="http://www.w3.org/2000/svg" viewBox="0 0 556.09 38.13"><defs><style>.cls-1{fill:#fff;}</style></defs><title>Asset 1</title><g id="Layer_2" data-name="Layer 2"><g id="Layer_1-2" data-name="Layer 1"><path class="cls-1" d="M14.28,31.46A11,11,0,0,0,14.72,35a5.35,5.35,0,0,0,1.43,2.08H7.52A5.16,5.16,0,0,0,9,35a11.27,11.27,0,0,0,.42-3.58V8.66H6.84a17.89,17.89,0,0,0-4.24.41A5.78,5.78,0,0,0,0,10.4L1.56,5.15H24L22.55,10.3A4.1,4.1,0,0,0,20.7,9.06a8.81,8.81,0,0,0-2.88-.4H14.28Z"/><path class="cls-1" d="M31.21,32.21a10,10,0,0,0,.36,3.13,4.53,4.53,0,0,0,1.26,1.82H25.28a4.67,4.67,0,0,0,1.24-1.82,9.78,9.78,0,0,0,.37-3.13V14.11A9.67,9.67,0,0,0,26.53,11,4.56,4.56,0,0,0,25.28,9.2h7.55A4.42,4.42,0,0,0,31.57,11a9.92,9.92,0,0,0-.36,3.12v6.26H46V14.11A9.76,9.76,0,0,0,45.66,11,4.37,4.37,0,0,0,44.41,9.2H52A4.52,4.52,0,0,0,50.71,11a9.55,9.55,0,0,0-.38,3.12v18.1a10,10,0,0,0,.36,3.13A4.52,4.52,0,0,0,52,37.16H44.41a4.46,4.46,0,0,0,1.25-1.82A9.87,9.87,0,0,0,46,32.21V23.6H31.21Z"/><path class="cls-1" d="M55.61,37.16a4.63,4.63,0,0,0,1.24-1.82,9.71,9.71,0,0,0,.38-3.13V14.13A9.7,9.7,0,0,0,56.85,11a4.53,4.53,0,0,0-1.24-1.8H70.68v4.42a6.46,6.46,0,0,0-2.22-1.18,9.75,9.75,0,0,0-2.78-.36,13.65,13.65,0,0,0-1.82.13q-1,.13-2.28.4v7.88h6.75v4.06a2.55,2.55,0,0,0-1.29-.8,12.68,12.68,0,0,0-3-.23H61.58v10c1,.16,2,.28,2.83.36S66,34,66.6,34a13.42,13.42,0,0,0,4-.57,14.4,14.4,0,0,0,3.66-1.75L72.3,37.16Z"/><path class="cls-1" d="M109.93,37.22v-2.4a18.24,18.24,0,0,1-4.62,2.49,14.32,14.32,0,0,1-4.73.82,12.34,12.34,0,0,1-4.88-.91A9.85,9.85,0,0,1,92,34.47a8.71,8.71,0,0,1-1.75-3.35A20,20,0,0,1,89.72,26V11a11.28,11.28,0,0,0-.41-3.55,5.1,5.1,0,0,0-1.41-2h8.55a5.08,5.08,0,0,0-1.4,2A11.28,11.28,0,0,0,94.63,11V25a27.34,27.34,0,0,0,.31,4.86A5.86,5.86,0,0,0,96,32.36,5.45,5.45,0,0,0,98.41,34a10.21,10.21,0,0,0,3.57.56,9.81,9.81,0,0,0,3.21-.52,7.81,7.81,0,0,0,2.61-1.5,4.63,4.63,0,0,0,1.42-2.14,12.09,12.09,0,0,0,.43-3.59V11a11.44,11.44,0,0,0-.41-3.61,4.91,4.91,0,0,0-1.41-2h8.62A4.93,4.93,0,0,0,115,7.5a10.92,10.92,0,0,0-.43,3.5v20.6a11,11,0,0,0,.43,3.55,5.3,5.3,0,0,0,1.43,2.06Z"/><path class="cls-1" d="M147,9.2A4.39,4.39,0,0,0,145.71,11a9.8,9.8,0,0,0-.36,3.12V37.81a5,5,0,0,1-2.74-.95,17.18,17.18,0,0,1-3.25-3.45l-14.21-18.2v17a10.1,10.1,0,0,0,.36,3.18,4.33,4.33,0,0,0,1.23,1.77h-6.25a4.59,4.59,0,0,0,1.24-1.82,9.64,9.64,0,0,0,.38-3.13V14.11a9.54,9.54,0,0,0-.38-3.12,4.5,4.5,0,0,0-1.24-1.79h5.59l16.29,21V14.11A9.56,9.56,0,0,0,142,11a4.53,4.53,0,0,0-1.24-1.79Z"/><path class="cls-1" d="M157.4,32.2a9.86,9.86,0,0,0,.36,3.13A4.44,4.44,0,0,0,159,37.16h-7.55a4.44,4.44,0,0,0,1.25-1.82,10,10,0,0,0,.36-3.13V14.11a9.91,9.91,0,0,0-.36-3.12,4.36,4.36,0,0,0-1.25-1.79H159A4.35,4.35,0,0,0,157.76,11a9.75,9.75,0,0,0-.36,3.12Z"/><path class="cls-1" d="M175,37.87a5.64,5.64,0,0,1-3-2,15.76,15.76,0,0,1-2.3-4.66L164.11,14.9a29.67,29.67,0,0,0-1.28-3.28,20.36,20.36,0,0,0-1.36-2.42l5.69,0a11.4,11.4,0,0,0,.14,1.27,8.66,8.66,0,0,0,.26,1.11l6.7,20,6.34-16.67a12.61,12.61,0,0,0,.45-1.54,6.69,6.69,0,0,0,.17-1.42,2.71,2.71,0,0,0-.32-1.2,9.63,9.63,0,0,0-1.06-1.58h6.31Z"/><path class="cls-1" d="M188.08,37.16a4.67,4.67,0,0,0,1.24-1.82,9.68,9.68,0,0,0,.37-3.13V14.13a9.67,9.67,0,0,0-.37-3.13,4.57,4.57,0,0,0-1.24-1.8h15v4.42a6.42,6.42,0,0,0-2.2-1.18,9.66,9.66,0,0,0-2.78-.36,13.57,13.57,0,0,0-1.82.13q-1,.13-2.28.4v7.88h6.75v4.06a2.53,2.53,0,0,0-1.28-.8,12.63,12.63,0,0,0-3-.23H194v10q1.57.24,2.83.36c.85.08,1.58.12,2.2.12a13.26,13.26,0,0,0,3.94-.57,14.53,14.53,0,0,0,3.66-1.75l-1.93,5.47Z"/><path class="cls-1" d="M214.51,32.21a9.93,9.93,0,0,0,.37,3.13,4.44,4.44,0,0,0,1.25,1.82h-7.55a4.67,4.67,0,0,0,1.24-1.82,9.63,9.63,0,0,0,.38-3.13V14.12a9.57,9.57,0,0,0-.38-3.13,4.58,4.58,0,0,0-1.24-1.79h9.53a10.34,10.34,0,0,1,6.58,2,6.24,6.24,0,0,1,2.51,5.14,6,6,0,0,1-1.5,4A12.41,12.41,0,0,1,221,23.44l7.15,9.68a21.7,21.7,0,0,0,1.52,1.83q.89,1,2,2l-2.15.2h-.34a5.9,5.9,0,0,1-2.93-.8,7.39,7.39,0,0,1-2.42-2.21l-8.19-11.48a12.68,12.68,0,0,0,5.35-2.27,4.66,4.66,0,0,0,1.69-3.72,4.45,4.45,0,0,0-1.45-3.45,5.4,5.4,0,0,0-3.81-1.33,11.54,11.54,0,0,0-1.29.09c-.5.06-1.07.15-1.7.27V32.21Z"/><path class="cls-1" d="M233.08,36.53l-1.32-5.07a20.51,20.51,0,0,0,4.68,2.43,13.35,13.35,0,0,0,4.48.8,7.67,7.67,0,0,0,4.55-1.24,3.81,3.81,0,0,0,1.72-3.21A3.74,3.74,0,0,0,247,29.1,4.06,4.06,0,0,0,246.5,28q-.75-1.15-5-3.29l-1.68-.82a19,19,0,0,1-5.53-3.79,6.05,6.05,0,0,1-1.5-4.11,6.35,6.35,0,0,1,2.75-5.41,12.45,12.45,0,0,1,7.5-2,27.24,27.24,0,0,1,3,.18q1.64.18,3.57.56v4.7a13.41,13.41,0,0,0-3.43-2,10.19,10.19,0,0,0-3.59-.65,6.37,6.37,0,0,0-3.79,1,3.15,3.15,0,0,0-1.44,2.68,3.57,3.57,0,0,0,1.13,2.6,21,21,0,0,0,5.06,3l.68.32a25.75,25.75,0,0,1,5,2.85,6.78,6.78,0,0,1,1.91,2.36,6.54,6.54,0,0,1,.68,3,7.48,7.48,0,0,1-3.25,6.11,12.89,12.89,0,0,1-8.12,2.51,18,18,0,0,1-3.37-.34A31.09,31.09,0,0,1,233.08,36.53Z"/><path class="cls-1" d="M261.43,32.2a9.85,9.85,0,0,0,.37,3.13A4.46,4.46,0,0,0,263,37.16H255.5a4.48,4.48,0,0,0,1.26-1.82,10,10,0,0,0,.36-3.13V14.11a9.86,9.86,0,0,0-.36-3.12A4.4,4.4,0,0,0,255.5,9.2H263A4.38,4.38,0,0,0,261.79,11a9.74,9.74,0,0,0-.37,3.12Z"/><path class="cls-1" d="M390.65,0l2.53,6.19,9.64,24.16c1.07,2.69,1.9,5.32,4.55,6.68v.14h-9.51V37c2.28-1,1.9-1.54.66-4.83L396,25.55H384.26l-2.41,6.64c-1,2.63-1.3,4,.93,4.83v.14h-8.53V37c2.69-1.36,3.48-4,4.5-6.68L390.65.19V0Zm-.55,10.2-4.64,11.88h9.2Z"/><path class="cls-1" d="M331.85,37.85a17.15,17.15,0,0,1-5.94-1,13.55,13.55,0,0,1-8-7.67,14.9,14.9,0,0,1-.42-10.3,15.08,15.08,0,0,1,2.11-4.13,14.66,14.66,0,0,1,5.34-4.55,15.27,15.27,0,0,1,6.93-1.59,17.35,17.35,0,0,1,6,1,13.7,13.7,0,0,1,8.06,7.69A15.47,15.47,0,0,1,347,23.22a13.74,13.74,0,0,1-1.27,5.72,15.47,15.47,0,0,1-3.57,5,14,14,0,0,1-4.7,2.95A15.82,15.82,0,0,1,331.85,37.85ZM332,11.55a9.92,9.92,0,0,0-7.58,3.2,11.53,11.53,0,0,0-3,8.18,12.5,12.5,0,0,0,3,8.52,9.37,9.37,0,0,0,7.37,3.39,9.87,9.87,0,0,0,7.56-3.21,11.6,11.6,0,0,0,3-8.2,12.43,12.43,0,0,0-2.95-8.5A9.37,9.37,0,0,0,332,11.55Z"/><path class="cls-1" d="M355.26,32.24a9.89,9.89,0,0,0,.36,3.13,4.48,4.48,0,0,0,1.26,1.81h-7.55a4.57,4.57,0,0,0,1.24-1.81,9.65,9.65,0,0,0,.38-3.13V14.16a9.7,9.7,0,0,0-.38-3.13,4.5,4.5,0,0,0-1.24-1.8h15.09v4.41a6.6,6.6,0,0,0-2.22-1.18,9.72,9.72,0,0,0-2.8-.36,14.33,14.33,0,0,0-1.84.13q-1,.13-2.28.4V20.5h6.78v4.06a2.57,2.57,0,0,0-1.3-.8,12.71,12.71,0,0,0-3-.23h-2.52v8.7Z"/><path class="cls-1" d="M413.91,32.24a9.71,9.71,0,0,0,.37,3.12,4.49,4.49,0,0,0,1.25,1.81H408a4.6,4.6,0,0,0,1.24-1.81,9.42,9.42,0,0,0,.38-3.12V14.15a9.44,9.44,0,0,0-.38-3.13A4.47,4.47,0,0,0,408,9.23h9.53a10.33,10.33,0,0,1,6.58,2,6.24,6.24,0,0,1,2.5,5.14,6,6,0,0,1-1.5,4,12.37,12.37,0,0,1-4.68,3.08l7.15,9.68A19.33,19.33,0,0,0,429.1,35c.59.64,1.27,1.3,2,2l-2.14.19h-.33a5.89,5.89,0,0,1-2.93-.8,7.24,7.24,0,0,1-2.42-2.2l-8.2-11.48a12.67,12.67,0,0,0,5.36-2.27,4.66,4.66,0,0,0,1.69-3.72,4.44,4.44,0,0,0-1.46-3.45,5.39,5.39,0,0,0-3.81-1.33,11,11,0,0,0-1.28.09c-.51.06-1.07.15-1.7.27V32.24Z"/><path class="cls-1" d="M439.42,32.24a10.1,10.1,0,0,0,.36,3.12A4.51,4.51,0,0,0,441,37.17h-7.55a4.55,4.55,0,0,0,1.25-1.81,9.78,9.78,0,0,0,.37-3.12V14.14a9.75,9.75,0,0,0-.37-3.12,4.44,4.44,0,0,0-1.25-1.79H441A4.41,4.41,0,0,0,439.77,11a10.09,10.09,0,0,0-.36,3.12Z"/><path class="cls-1" d="M467.35,31.94l-2,5.23H443.87l14.65-24.34a27.86,27.86,0,0,0-3.1-.62,20,20,0,0,0-2.7-.2,13.5,13.5,0,0,0-3.52.46,15.22,15.22,0,0,0-3.45,1.44l1.9-4.67H465.5L450.85,33.57q2.44.29,4.11.41c1.1.08,2.07.12,2.87.12a23.32,23.32,0,0,0,5.21-.54A16.16,16.16,0,0,0,467.35,31.94Z"/><path class="cls-1" d="M483.21,37.85a17.12,17.12,0,0,1-5.94-1,13.52,13.52,0,0,1-4.78-2.93,13.85,13.85,0,0,1-3.25-4.74,14.69,14.69,0,0,1-1.14-5.73,14.43,14.43,0,0,1,.73-4.57,14.87,14.87,0,0,1,2.1-4.13,14.67,14.67,0,0,1,5.34-4.55,15.27,15.27,0,0,1,6.93-1.59,17.34,17.34,0,0,1,6,1,13.67,13.67,0,0,1,8.06,7.69,15.54,15.54,0,0,1,1.13,5.93,13.71,13.71,0,0,1-1.27,5.72,15.46,15.46,0,0,1-3.57,5,14,14,0,0,1-4.7,2.95A15.78,15.78,0,0,1,483.21,37.85Zm.15-26.29a9.92,9.92,0,0,0-7.59,3.2,11.53,11.53,0,0,0-3,8.18,12.48,12.48,0,0,0,3,8.52,9.35,9.35,0,0,0,7.37,3.39,9.88,9.88,0,0,0,7.56-3.21,11.58,11.58,0,0,0,3-8.2,12.44,12.44,0,0,0-3-8.5A9.38,9.38,0,0,0,483.36,11.55Z"/><path class="cls-1" d="M527.11,9.23A4.26,4.26,0,0,0,525.86,11a9.71,9.71,0,0,0-.37,3.12V37.82a5,5,0,0,1-2.74-.94,17.07,17.07,0,0,1-3.25-3.43l-14.22-18.2v17a10.16,10.16,0,0,0,.36,3.18,4.27,4.27,0,0,0,1.23,1.76h-6.24a4.7,4.7,0,0,0,1.24-1.81,9.61,9.61,0,0,0,.38-3.12V14.14a9.59,9.59,0,0,0-.38-3.12,4.58,4.58,0,0,0-1.24-1.79h5.59l16.29,21V14.14a9.6,9.6,0,0,0-.38-3.12,4.52,4.52,0,0,0-1.24-1.79h6.22Z"/><path class="cls-1" d="M533.54,33.41a4.32,4.32,0,0,0-.27.88,4.89,4.89,0,0,0-.08.93,1.73,1.73,0,0,0,.28.88,5.26,5.26,0,0,0,.92,1.08h-6.5a5.52,5.52,0,0,0,1.46-1.54,14.76,14.76,0,0,0,1.31-2.69L538.42,13a6.44,6.44,0,0,0,.36-1.11,4.86,4.86,0,0,0,.12-1,1.85,1.85,0,0,0-.22-.89,2.83,2.83,0,0,0-.75-.8h6.26L553,32.66a11.84,11.84,0,0,0,1.32,2.58,10.69,10.69,0,0,0,1.82,1.93h-7.89l.1-.1c.73-.77,1.09-1.34,1.09-1.7a5.77,5.77,0,0,0-.48-1.88c0-.14-.08-.24-.1-.3l-2.36-6.46H536.17Zm3.73-9.49h8.12l-3.9-10.8Z"/><path class="cls-1" d="M288.16,9.2l7.17,12.19,4.83-7.94a8.07,8.07,0,0,0,.66-1.32,3,3,0,0,0,.23-1,1.81,1.81,0,0,0-.29-1,3.65,3.65,0,0,0-.89-1h6.45l-9.47,15.39v7.64a9.86,9.86,0,0,0,.37,3.14,4.76,4.76,0,0,0,1.25,1.82h-7.6a4.43,4.43,0,0,0,1.26-1.82,10,10,0,0,0,.37-3.14V24.52L286,13.85a2.88,2.88,0,0,0-1.76-1.33,10.06,10.06,0,0,0-2.82-.26h-3.09v20a9.56,9.56,0,0,0,.37,3.14A4.65,4.65,0,0,0,280,37.18h-7.55a4.56,4.56,0,0,0,1.25-1.82,10.12,10.12,0,0,0,.36-3.14v-20h-2.21a15.48,15.48,0,0,0-3.73.36,5.12,5.12,0,0,0-2.28,1.17L267.2,9.2Z"/></g></g></svg>